<!-- Save this as logo-red.svg -->
<svg xmlns="http://www.w3.org/2000/svg" width="1024" height="1024" viewBox="0 0 1024 1024">
  <defs>
    <linearGradient id="g2" x1="0" x2="1" y1="0" y2="1">
      <stop offset="0" stop-color="#c65b5b"/>
      <stop offset="1" stop-color="#7f2f2f"/>
    </linearGradient>
    <filter id="soft2" x="-30%" y="-30%" width="160%" height="160%">
      <feGaussianBlur stdDeviation="10" result="b"/>
      <feBlend in="SourceGraphic" in2="b"/>
    </filter>
  </defs>

  <rect width="1024" height="1024" fill="none"/>

  <circle cx="512" cy="360" r="260" fill="none" stroke="url(#g2)" stroke-width="34" opacity="0.85"/>
  <circle cx="512" cy="360" r="190" fill="none" stroke="#ffecec" stroke-width="6" opacity="0.10"/>

  <g transform="translate(0,20)">
    <rect x="440" y="230" rx="48" ry="48" width="144" height="200" fill="url(#g2)"/>
    <rect x="444" y="234" rx="44" ry="44" width="136" height="192" fill="#2a1414" opacity="0.06"/>
    <ellipse cx="512" cy="260" rx="56" ry="18" fill="rgba(255,255,255,0.05)"/>
  </g>

  <g fill="none" stroke="#ffe7e7" stroke-linecap="round" stroke-width="12" transform="translate(0,20)" opacity="0.9">
    <path d="M360 430 L388 420 L420 442 L460 400 L500 440 L540 410 L580 435 L620 420 L664 432" />
  </g>

  <rect x="488" y="440" width="48" height="78" rx="8" ry="8" fill="url(#g2)" opacity="0.95"/>
  <ellipse cx="512" cy="540" rx="140" ry="22" fill="#371313" opacity="0.08"/>

  <g filter="url(#soft2)" opacity="0.16">
    <circle cx="512" cy="360" r="260" fill="none" stroke="#7f2f2f" stroke-width="6"/>
  </g>
</svg>

